<svg width="46" height="46" viewBox="0 0 46 46" fill="none" xmlns="http://www.w3.org/2000/svg">
<path d="M19 5V18C19 18.5523 18.5523 19 18 19H5C2.79086 19 1 17.2091 1 15V5C1 2.79086 2.79086 1 5 1H15C17.2091 1 19 2.79086 19 5Z" stroke="black" stroke-width="2"/>
<path d="M45 5V15C45 17.2091 43.2091 19 41 19H28C27.4477 19 27 18.5523 27 18V5C27 2.79086 28.7909 1 31 1H41C43.2091 1 45 2.79086 45 5Z" stroke="black" stroke-width="2"/>
<path d="M45 31V41C45 43.2091 43.2091 45 41 45H31C28.7909 45 27 43.2091 27 41V28C27 27.4477 27.4477 27 28 27H41C43.2091 27 45 28.7909 45 31Z" stroke="black" stroke-width="2"/>
<path d="M19 28V41C19 43.2091 17.2091 45 15 45H5C2.79086 45 1 43.2091 1 41V31C1 28.7909 2.79086 27 5 27H18C18.5523 27 19 27.4477 19 28Z" stroke="black" stroke-width="2"/>
</svg>
