<svg width="50" height="32" viewBox="0 0 50 32" fill="none" xmlns="http://www.w3.org/2000/svg">
<path fill-rule="evenodd" clip-rule="evenodd" d="M24.0049 0.0547789C21.128 0.444234 18.6915 2.60315 17.9458 5.42336C17.6671 6.47706 17.6672 8.06113 17.946 9.12535C18.3446 10.647 19.4891 12.3412 20.682 13.1757C20.9027 13.33 21.0486 13.4879 21.0065 13.5266C20.9643 13.5652 20.6781 13.6899 20.3705 13.8038C19.3025 14.1993 18.0921 14.8902 16.918 15.7743L16.6089 16.0071L16.1873 15.6638C15.6217 15.2033 14.5764 14.5808 13.9105 14.308L13.3675 14.0855L13.9037 13.5696C15.0276 12.4882 15.597 11.2472 15.6849 9.68721C15.7828 7.9502 15.245 6.54354 14.007 5.29895C11.7465 3.02625 8.23024 3.04995 5.97323 5.35295C3.77224 7.5989 3.7891 11.149 6.01132 13.3832L6.704 14.0796L6.06082 14.3439C5.13264 14.7251 3.79358 15.6534 2.9681 16.4877C1.16709 18.3079 0.189416 20.5433 0.0601181 23.1362L0 24.341H6.04455H12.089L12.0387 25.5949C11.9771 27.1287 12.1131 28.0289 12.5428 28.9337C13.1328 30.1758 14.3884 31.291 15.7022 31.7398L16.3502 31.9612L24.4861 31.9904C32.8993 32.0206 33.4405 32.0002 34.457 31.6164C35.854 31.0888 37.0714 29.8198 37.5664 28.3754C37.7614 27.8062 37.7861 27.5429 37.7861 26.0381V24.3423L43.8759 24.3171L49.9657 24.2918L49.9938 23.3739C50.0126 22.7577 49.9886 22.4768 49.9207 22.5192C49.8599 22.557 49.8192 22.4719 49.8188 22.3061C49.8176 21.83 49.4582 20.4901 49.105 19.6451C48.1663 17.3995 46.0183 15.2179 43.887 14.3452L43.2426 14.0814L43.9363 13.3744C46.1744 11.0939 46.1702 7.56999 43.9268 5.30977C42.5286 3.90104 40.6608 3.3326 38.7633 3.73828C36.6275 4.195 34.8982 5.87645 34.3654 8.01472C34.1501 8.87889 34.2241 10.3816 34.5247 11.2468C34.805 12.0537 35.566 13.1987 36.1343 13.6688L36.5809 14.0382L35.6245 14.5019C35.0985 14.757 34.3699 15.1942 34.0053 15.4736C33.6407 15.7529 33.307 15.9814 33.2636 15.9814C33.2202 15.9814 33.0143 15.8438 32.806 15.6755C31.952 14.9859 30.5676 14.2071 29.4786 13.8038C29.171 13.6899 28.8826 13.5629 28.8376 13.5214C28.7926 13.48 28.946 13.3122 29.1786 13.1486C29.7049 12.7787 30.5037 11.9434 30.8902 11.3591C31.7493 10.0605 32.0996 8.88056 32.1018 7.2777C32.1037 5.95326 31.8799 5.01099 31.2893 3.85649C30.7106 2.7256 29.4345 1.43754 28.3141 0.853458C26.9951 0.16601 25.386 -0.132278 24.0049 0.0547789ZM23.5703 1.7795C22.5788 2.02163 21.7757 2.48917 20.969 3.29395C19.8253 4.43487 19.322 5.67218 19.322 7.34241C19.322 8.92364 19.8612 10.1667 21.0642 11.3591C23.0751 13.3522 26.2366 13.4741 28.46 11.6442C29.4082 10.8638 30.0219 9.87908 30.3383 8.63086C30.986 6.07472 29.7377 3.35856 27.3967 2.23032C26.948 2.01405 26.3486 1.78894 26.0647 1.72993C25.3715 1.58605 24.2731 1.60788 23.5703 1.7795ZM8.78972 5.40015C6.69289 6.21171 5.58679 8.10401 6.01045 10.1549C6.19158 11.032 6.42669 11.4935 7.03382 12.164C9.1401 14.4901 13.0004 13.5494 13.9218 10.4857C14.1031 9.88253 14.0967 8.81064 13.9077 8.15476C13.7162 7.48954 13.123 6.58366 12.6027 6.16165C11.8434 5.54571 11.2012 5.32108 10.1143 5.29128C9.46222 5.27348 9.02405 5.30948 8.78972 5.40015ZM38.5064 5.48758C37.027 6.11681 36.2193 7.07206 35.9219 8.54402C35.3608 11.3207 37.6912 13.8203 40.4711 13.4236C41.6744 13.2519 42.986 12.3486 43.4955 11.3407C44.4108 9.52966 43.9824 7.3788 42.4594 6.13923C41.7176 5.53548 41.1069 5.32138 40.0272 5.28666C39.1791 5.25932 38.982 5.28538 38.5064 5.48758ZM22.9758 14.7485C21.8508 14.9565 20.9375 15.2723 19.8328 15.8351C18.5293 16.4993 17.7266 17.1085 16.6797 18.2277C14.8914 20.1396 13.9101 22.3926 13.6598 25.1618C13.4304 27.698 14.0488 29.147 15.7147 29.9767L16.3459 30.291L24.7053 30.3177C33.9133 30.3471 33.6215 30.3642 34.5548 29.7403C35.1431 29.3469 35.5667 28.8471 35.8763 28.181C36.1033 27.6925 36.133 27.4956 36.1613 26.2949C36.2116 24.1557 35.8669 22.6026 34.9347 20.7668C33.3292 17.6056 30.3191 15.3684 26.8462 14.7552C25.8305 14.576 23.927 14.5726 22.9758 14.7485ZM8.84759 15.1988C6.72348 15.532 4.73696 16.6733 3.47214 18.2871C2.56725 19.4417 1.88666 20.9519 1.72832 22.1565L1.6607 22.6707L7.04152 22.6454L12.4223 22.6199L12.6405 21.9314C13.072 20.5695 13.9279 18.9747 14.8309 17.85C15.0262 17.6066 15.2398 17.3365 15.3055 17.2497C15.4076 17.1147 15.3412 17.0328 14.8463 16.6824C13.1563 15.4858 10.7741 14.8967 8.84759 15.1988ZM38.7118 15.2052C37.3775 15.411 35.7773 16.097 34.7897 16.8863L34.4239 17.1786L34.8477 17.6865C35.7951 18.8218 36.6748 20.4052 37.1514 21.8331L37.4141 22.6199L42.8386 22.6453L48.2631 22.6707L48.2023 22.2519C48.1081 21.6038 47.6004 20.1219 47.2669 19.5219C45.8119 16.9053 43.2228 15.286 40.2767 15.1503C39.7644 15.1267 39.0601 15.1514 38.7118 15.2052ZM0.0646976 23.4558C0.0646976 23.9697 0.0811643 24.18 0.101236 23.923C0.121308 23.666 0.121308 23.2457 0.101236 22.9887C0.0811643 22.7317 0.0646976 22.942 0.0646976 23.4558Z" fill="black"/>
</svg>
