<svg width="48" height="48" viewBox="0 0 48 48" fill="none" xmlns="http://www.w3.org/2000/svg">
<path d="M46.439 43.541H44.7117V12.6835C44.7117 11.8228 44.0115 11.1225 43.1507 11.1225H34.7574V7.84254C34.7574 6.98185 34.0571 6.28156 33.1964 6.28156H30.8039V4.55434C30.8039 3.69366 30.1036 2.99337 29.2429 2.99337H24.5854V0.585366C24.5854 0.430117 24.5237 0.281227 24.4139 0.17145C24.3041 0.0616723 24.1552 0 24 0C23.8448 0 23.6959 0.0616723 23.5861 0.17145C23.4763 0.281227 23.4146 0.430117 23.4146 0.585366V2.99337H18.7571C17.8964 2.99337 17.1961 3.69366 17.1961 4.55434V6.28156H14.8036C13.9429 6.28156 13.2426 6.98185 13.2426 7.84254V11.1225H4.84927C3.98859 11.1225 3.28829 11.8228 3.28829 12.6835V43.541H1.56098C0.700293 43.541 0 44.2413 0 45.102V46.439C0 47.2997 0.700293 48 1.56098 48H46.439C47.2997 48 48 47.2997 48 46.439V45.102C48 44.2413 47.2998 43.541 46.439 43.541ZM43.1508 12.2933C43.366 12.2933 43.5411 12.4683 43.5411 12.6835V43.541H34.7575V12.2933H43.1508ZM18.3668 4.55434C18.3668 4.33912 18.5419 4.1641 18.7571 4.1641H29.243C29.4582 4.1641 29.6333 4.33912 29.6333 4.55434V6.28156H18.3668V4.55434ZM14.8036 7.45229H33.1965C33.4117 7.45229 33.5867 7.62732 33.5867 7.84254V43.541H31.3721V33.3202C31.3721 33.1649 31.3104 33.0161 31.2006 32.9063C31.0909 32.7965 30.942 32.7348 30.7867 32.7348H17.2134C17.0581 32.7348 16.9092 32.7965 16.7994 32.9063C16.6897 33.0161 16.628 33.1649 16.628 33.3202V43.541H14.4134V7.84254C14.4134 7.62732 14.5884 7.45229 14.8036 7.45229ZM17.7987 43.541V33.9056H23.4146V43.541H17.7987ZM24.5854 33.9056H30.2013V43.541H24.5854V33.9056ZM4.45902 12.6835C4.45902 12.4683 4.63405 12.2933 4.84927 12.2933H13.2426V43.541H4.45902V12.6835ZM46.8293 46.439C46.8293 46.6542 46.6542 46.8293 46.439 46.8293H1.56098C1.34576 46.8293 1.17073 46.6542 1.17073 46.439V45.102C1.17073 44.8867 1.34576 44.7117 1.56098 44.7117H46.439C46.6542 44.7117 46.8293 44.8867 46.8293 45.102V46.439ZM10.5435 21.9287H7.15815C7.0029 21.9287 6.85401 21.9904 6.74423 22.1001C6.63445 22.2099 6.57278 22.3588 6.57278 22.514V25.8994C6.57278 26.0547 6.63445 26.2036 6.74423 26.3133C6.85401 26.4231 7.0029 26.4848 7.15815 26.4848H10.5435C10.6988 26.4848 10.8477 26.4231 10.9574 26.3133C11.0672 26.2036 11.1289 26.0547 11.1289 25.8994V22.514C11.1289 22.3588 11.0672 22.2099 10.9574 22.1001C10.8477 21.9904 10.6988 21.9287 10.5435 21.9287ZM9.95815 25.314H7.74351V23.0994H9.95815V25.314ZM10.5435 36.7703H7.15815C7.0029 36.7703 6.85401 36.832 6.74423 36.9418C6.63445 37.0516 6.57278 37.2005 6.57278 37.3557V40.741C6.57278 40.8962 6.63445 41.0451 6.74423 41.1549C6.85401 41.2647 7.0029 41.3263 7.15815 41.3263H10.5435C10.6988 41.3263 10.8477 41.2647 10.9574 41.1549C11.0672 41.0451 11.1289 40.8962 11.1289 40.741V37.3557C11.1289 37.2005 11.0672 37.0516 10.9574 36.9418C10.8477 36.832 10.6988 36.7703 10.5435 36.7703ZM9.95815 40.1556H7.74351V37.9411H9.95815V40.1556ZM10.5435 29.3495H7.15815C7.0029 29.3495 6.85401 29.4111 6.74423 29.5209C6.63445 29.6307 6.57278 29.7796 6.57278 29.9348V33.3202C6.57278 33.4754 6.63445 33.6243 6.74423 33.7341C6.85401 33.8439 7.0029 33.9056 7.15815 33.9056H10.5435C10.6988 33.9056 10.8477 33.8439 10.9574 33.7341C11.0672 33.6243 11.1289 33.4754 11.1289 33.3202V29.9348C11.1289 29.7796 11.0672 29.6307 10.9574 29.5209C10.8477 29.4111 10.6988 29.3495 10.5435 29.3495ZM9.95815 32.7348H7.74351V30.5202H9.95815V32.7348ZM10.5435 14.5079H7.15815C7.0029 14.5079 6.85401 14.5696 6.74423 14.6794C6.63445 14.7891 6.57278 14.938 6.57278 15.0933V18.4785C6.57278 18.6338 6.63445 18.7827 6.74423 18.8925C6.85401 19.0022 7.0029 19.0639 7.15815 19.0639H10.5435C10.6988 19.0639 10.8477 19.0022 10.9574 18.8925C11.0672 18.7827 11.1289 18.6338 11.1289 18.4785V15.0933C11.1289 14.938 11.0672 14.7891 10.9574 14.6794C10.8477 14.5696 10.6988 14.5079 10.5435 14.5079ZM9.95815 17.8932H7.74351V15.6786H9.95815V17.8932ZM37.4566 33.9056H40.8419C40.9972 33.9056 41.1461 33.8439 41.2559 33.7341C41.3656 33.6243 41.4273 33.4754 41.4273 33.3202V29.9348C41.4273 29.7796 41.3656 29.6307 41.2559 29.5209C41.1461 29.4111 40.9972 29.3495 40.8419 29.3495H37.4566C37.3013 29.3495 37.1524 29.4111 37.0427 29.5209C36.9329 29.6307 36.8712 29.7796 36.8712 29.9348V33.3202C36.8712 33.4754 36.9329 33.6243 37.0427 33.7341C37.1524 33.8439 37.3013 33.9056 37.4566 33.9056ZM38.042 30.5202H40.2566V32.7348H38.042V30.5202ZM37.4566 26.4848H40.8419C40.9972 26.4848 41.1461 26.4231 41.2559 26.3133C41.3656 26.2036 41.4273 26.0547 41.4273 25.8994V22.514C41.4273 22.3588 41.3656 22.2099 41.2559 22.1001C41.1461 21.9904 40.9972 21.9287 40.8419 21.9287H37.4566C37.3013 21.9287 37.1524 21.9904 37.0427 22.1001C36.9329 22.2099 36.8712 22.3588 36.8712 22.514V25.8994C36.8712 26.0547 36.9329 26.2036 37.0427 26.3133C37.1524 26.4231 37.3013 26.4848 37.4566 26.4848ZM38.042 23.0994H40.2566V25.314H38.042V23.0994ZM37.4566 19.0639H40.8419C40.9972 19.0639 41.1461 19.0022 41.2559 18.8925C41.3656 18.7827 41.4273 18.6338 41.4273 18.4785V15.0933C41.4273 14.938 41.3656 14.7891 41.2559 14.6794C41.1461 14.5696 40.9972 14.5079 40.8419 14.5079H37.4566C37.3013 14.5079 37.1524 14.5696 37.0427 14.6794C36.9329 14.7891 36.8712 14.938 36.8712 15.0933V18.4785C36.8712 18.6338 36.9329 18.7827 37.0427 18.8925C37.1524 19.0022 37.3013 19.0639 37.4566 19.0639ZM38.042 15.6786H40.2566V17.8932H38.042V15.6786ZM37.4566 41.3263H40.8419C40.9972 41.3263 41.1461 41.2647 41.2559 41.1549C41.3656 41.0451 41.4273 40.8962 41.4273 40.741V37.3557C41.4273 37.2005 41.3656 37.0516 41.2559 36.9418C41.1461 36.832 40.9972 36.7703 40.8419 36.7703H37.4566C37.3013 36.7703 37.1524 36.832 37.0427 36.9418C36.9329 37.0516 36.8712 37.2005 36.8712 37.3557V40.741C36.8712 40.8962 36.9329 41.0451 37.0427 41.1549C37.1524 41.2647 37.3013 41.3263 37.4566 41.3263ZM38.042 37.9411H40.2566V40.1556H38.042V37.9411ZM17.2134 29.0034H30.7866C30.9419 29.0034 31.0908 28.9417 31.2005 28.832C31.3103 28.7222 31.372 28.5733 31.372 28.418V25.1299C31.372 24.9746 31.3103 24.8257 31.2005 24.7159C31.0908 24.6062 30.9419 24.5445 30.7866 24.5445H17.2134C17.0581 24.5445 16.9092 24.6062 16.7994 24.7159C16.6897 24.8257 16.628 24.9746 16.628 25.1299V28.418C16.628 28.5733 16.6897 28.7222 16.7994 28.832C16.9092 28.9417 17.0581 29.0034 17.2134 29.0034ZM17.7987 25.7152H30.2013V27.8327H17.7987V25.7152ZM17.2134 14.1619H30.7866C30.9419 14.1619 31.0908 14.1002 31.2005 13.9904C31.3103 13.8806 31.372 13.7317 31.372 13.5765V10.2882C31.372 10.1329 31.3103 9.98406 31.2005 9.87428C31.0908 9.7645 30.9419 9.70283 30.7866 9.70283H17.2134C17.0581 9.70283 16.9092 9.7645 16.7994 9.87428C16.6897 9.98406 16.628 10.1329 16.628 10.2882V13.5765C16.628 13.7317 16.6897 13.8806 16.7994 13.9904C16.9092 14.1002 17.0581 14.1619 17.2134 14.1619ZM17.7987 10.8736H30.2013V12.9911H17.7987V10.8736ZM17.2134 21.5827H30.7866C30.9419 21.5827 31.0908 21.5211 31.2005 21.4113C31.3103 21.3015 31.372 21.1526 31.372 20.9974V17.7091C31.372 17.5538 31.3103 17.4049 31.2005 17.2952C31.0908 17.1854 30.9419 17.1237 30.7866 17.1237H17.2134C17.0581 17.1237 16.9092 17.1854 16.7994 17.2952C16.6897 17.4049 16.628 17.5538 16.628 17.7091V20.9974C16.628 21.1526 16.6897 21.3015 16.7994 21.4113C16.9092 21.5211 17.0581 21.5827 17.2134 21.5827ZM17.7987 18.2944H30.2013V20.412H17.7987V18.2944Z" fill="black"/>
</svg>
